<svg width="110" height="45" viewBox="0 0 110 45" fill="none" xmlns="http://www.w3.org/2000/svg">
<path d="M90.3984 33.4081C90.3984 30.7095 90.4657 28.5647 90.3714 26.4338C90.3243 25.4595 89.9672 24.4852 91.4156 24.4852C92.6485 24.4852 94.0565 24.338 94.1912 26.1815C94.299 27.6324 94.2316 29.0974 94.2316 30.5483C94.2316 33.1698 94.3125 35.7983 94.1777 38.4128C94.1373 39.1418 93.5849 40.2633 93.046 40.4315C92.379 40.6418 91.2203 40.3053 90.715 39.7586C88.6468 37.5436 86.7537 35.1604 84.7866 32.8404C84.6182 32.6441 84.4093 32.4829 83.8704 31.9782C83.8704 34.2913 83.8636 36.1908 83.8704 38.0833C83.8771 39.4291 83.6144 40.5717 82.0312 40.6628C80.7175 40.7399 80.0573 39.8637 80.0371 38.0693C80.0034 33.9338 79.9428 29.7913 79.9899 25.6558C79.9899 25.2562 80.7512 24.4642 80.9937 24.5343C82.0177 24.8076 83.2169 25.088 83.9108 25.817C86.0598 28.095 88.0135 30.5763 90.3916 33.3941L90.3984 33.4081Z" fill="black"/>
<path d="M100.21 24.476C102.386 24.2938 104.764 24.5671 106.718 26.3475C109.224 28.6256 110.154 31.4784 109.278 34.8569C108.469 37.962 105.862 40.2751 102.75 40.6115C101.301 40.7657 99.8396 40.7307 98.3777 40.7237C96.9562 40.7237 96.2152 39.9667 96.2084 38.4386C96.1949 34.177 96.1276 29.9153 96.1747 25.6536C96.1747 25.2541 96.8013 24.6162 97.2257 24.5321C98.088 24.3569 99.0109 24.476 100.21 24.476ZM99.9608 36.6793C102.48 37.198 104.225 36.5742 105.256 34.8639C106.186 33.3148 106.071 31.2681 104.973 29.7891C103.841 28.2751 102.063 27.7774 99.9676 28.4153V36.6793H99.9608Z" fill="black"/>
<path d="M96.155 13.4998C96.155 11.397 96.2156 9.29417 96.1281 7.19838C96.0876 6.16801 96.4447 5.81754 97.3609 5.83156C99.1529 5.8596 100.958 5.75445 102.744 5.90866C106.516 6.22408 109.602 9.88997 109.615 13.9133C109.629 18.0138 106.476 21.6867 102.622 21.9741C101.167 22.0862 99.7053 22.0302 98.2502 22.0231C96.8556 22.0161 96.2224 21.2101 96.2224 19.8082C96.2224 17.7054 96.2224 15.6026 96.2224 13.4998C96.2022 13.4998 96.182 13.4998 96.155 13.4998ZM99.9142 9.5395C99.9142 12.133 99.9142 14.5722 99.9142 17.0115C99.9142 17.3479 99.9681 17.6844 100.008 18.0769C102.077 18.4484 103.869 18.2031 105.155 16.3526C106.139 14.9367 106.152 12.925 105.176 11.418C103.95 9.53249 102.164 9.20305 99.9209 9.5395H99.9142Z" fill="black"/>
<path d="M78.3372 13.9072C78.3102 18.302 74.8138 21.9118 70.6033 21.8908C66.4062 21.8698 62.8963 18.2179 62.8829 13.8581C62.8694 9.38613 66.3928 5.79034 70.7313 5.8324C74.9957 5.88146 78.3641 9.44922 78.3372 13.9002V13.9072ZM75.0361 13.8301C75.0361 11.2857 73.1363 9.288 70.6976 9.25296C68.1982 9.22492 66.1839 11.2716 66.1906 13.8511C66.1974 16.3955 68.2858 18.5193 70.7178 18.4702C73.1094 18.4212 75.0361 16.3464 75.0294 13.8301H75.0361Z" fill="black"/>
<path d="M87.2483 5.83789C91.506 5.89397 94.8677 9.48976 94.834 13.9407C94.7936 18.3215 91.2702 21.9313 87.0597 21.8963C82.7953 21.8613 79.2786 18.0902 79.3729 13.6603C79.474 9.25845 82.9704 5.78181 87.2483 5.8449V5.83789ZM87.0664 9.25845C84.6344 9.28649 82.701 11.2912 82.6875 13.8005C82.674 16.3659 84.7018 18.4898 87.154 18.4687C89.5995 18.4547 91.5801 16.2958 91.5195 13.7094C91.4656 11.179 89.5119 9.23041 87.0664 9.25845Z" fill="black"/>
<path d="M78.958 39.0764C78.4931 39.5461 78.0148 40.4433 77.4556 40.4993C76.7079 40.5764 75.8253 40.1208 75.1516 39.6582C74.6127 39.2867 74.35 38.1512 73.8649 38.0811C72.4367 37.8778 70.9613 37.962 69.5129 38.1021C69.1963 38.1302 68.8796 38.8381 68.6708 39.2797C68.0914 40.5344 67.1752 41.0671 65.9424 40.5274C64.6018 39.9456 64.6422 38.8101 65.1272 37.5975C66.7373 33.5671 68.334 29.5297 69.9508 25.5063C70.4359 24.2937 72.0796 24.0414 73.043 25.0788C73.454 25.5274 73.7436 26.1232 73.9862 26.7049C75.4615 30.2306 76.91 33.7634 78.3516 37.2961C78.547 37.7727 78.6885 38.2774 78.958 39.0764ZM73.5685 34.9059C72.9959 33.4339 72.4839 32.1091 71.7967 30.3428C71.1095 32.1722 70.6245 33.476 70.0923 34.9059H73.5752H73.5685Z" fill="black"/>
<path d="M55.1906 9.43443V12.4835C56.4504 12.4835 57.6563 12.4975 58.8622 12.4835C60.0681 12.4625 61.0651 12.834 61.0786 14.2569C61.0988 15.7218 60.1085 16.2335 58.8285 16.2475C57.6698 16.2615 56.5043 16.2475 55.1232 16.2475C55.1232 17.6003 55.1232 18.7499 55.1232 19.8994C55.1165 21.119 54.618 21.9601 53.3717 21.9952C52.0378 22.0302 51.4651 21.1471 51.4449 19.8714C51.391 15.5606 51.3506 11.2428 51.3978 6.9321C51.3978 6.5606 52.0984 5.89471 52.4891 5.8877C55.3456 5.79658 58.202 5.83163 61.0584 5.85266C62.0959 5.85967 62.7898 6.39939 62.7965 7.54191C62.8032 8.71948 62.1902 9.4064 61.0382 9.42742C59.1451 9.46247 57.2521 9.43443 55.1771 9.43443H55.1906Z" fill="black"/>
<path d="M55.128 36.7013C57.3983 36.7013 59.4598 36.7224 61.5145 36.7013C62.8687 36.6873 63.8994 37.0868 63.8792 38.706C63.8522 40.2411 62.8417 40.5775 61.5684 40.5635C58.9882 40.5354 56.408 40.5775 53.8278 40.5495C52.1571 40.5284 51.4564 39.8345 51.4362 38.1242C51.3823 33.9256 51.3487 29.72 51.4093 25.5214C51.4093 25.1219 52.1571 24.428 52.595 24.3929C53.7268 24.3018 54.9798 24.47 55.0809 26.0541C55.1887 27.7364 55.128 29.4397 55.128 31.1289C55.128 32.8742 55.128 34.6266 55.128 36.7083V36.7013Z" fill="black"/>
<path d="M32.9166 0.196153C35.7191 0.196153 38.5284 0.161106 41.3309 0.203162C44.1604 0.245218 46.4038 2.05363 46.4172 4.93447C46.4509 11.1658 46.7473 17.4952 45.8177 23.6004C44.0257 35.4041 33.2871 44.4882 21.7806 44.7055C16.5057 44.8036 11.2307 44.7546 5.95575 44.7195C3.05217 44.7055 0.78186 42.827 0.768386 39.8761C0.734702 33.7639 0.451755 27.5536 1.34102 21.5536C3.0926 9.65877 13.5953 0.602694 25.1692 0.21718C27.7494 0.133068 30.3296 0.203162 32.9099 0.203162C32.9099 0.203162 32.9099 0.189143 32.9099 0.182134L32.9166 0.196153ZM12.1941 41.9298C15.3873 41.9298 18.5941 42.105 21.7739 41.8947C30.2219 41.334 36.6286 37.2125 40.9334 29.5863C44.4029 23.4321 43.8303 16.6751 43.6955 9.9812C43.6955 9.93914 43.5406 9.89709 43.453 9.84802C38.2859 26.0747 27.7696 36.6097 12.1873 41.9298H12.1941ZM35.0454 3.0069C32.0543 3.0069 29.0564 2.91578 26.0652 3.02092C17.2871 3.32933 10.7052 7.5069 6.26565 15.3714C2.78944 21.5186 3.38228 28.2756 3.53049 34.9695C3.53049 35.0116 3.69218 35.0466 3.75954 35.0747C8.9267 18.855 19.4227 8.31298 35.0454 3.0069ZM6.41386 36.7289C17.1793 26.2499 27.6349 16.0653 38.2724 5.71251C24.3271 7.73821 9.74186 21.2592 6.41386 36.7289ZM40.7044 8.29896C29.9995 18.7219 19.6383 28.8153 9.00754 39.1681C23.3166 37.0723 37.7334 22.9976 40.7044 8.29896Z" fill="black"/>
</svg>
